<svg width="33" height="32" viewBox="0 0 33 32" fill="none" xmlns="http://www.w3.org/2000/svg">
<g clip-path="url(#clip0_1_53)">
<g clip-path="url(#clip1_1_53)">
<path d="M10.5579 26.4849L11.0224 26.7589C12.9739 27.9117 15.2113 28.5215 17.4929 28.5226H17.4979C24.5051 28.5226 30.208 22.847 30.2107 15.8712C30.2118 12.4906 28.8908 9.31209 26.4905 6.92059C24.0902 4.52952 20.8987 3.2118 17.5025 3.21041C10.49 3.21041 4.78706 8.88522 4.78441 15.8609C4.78349 18.2513 5.45524 20.5795 6.72802 22.5934L7.03053 23.0723L5.74594 27.7407L10.5579 26.4849ZM2.07379 31.3569L4.2437 23.4697C2.90527 21.1612 2.20117 18.5427 2.20227 15.8602C2.20553 7.46779 9.06656 0.639999 17.4983 0.639999C21.5897 0.641755 25.4299 2.22684 28.3179 5.10394C31.2054 7.98098 32.7952 11.8053 32.7938 15.8725C32.7902 24.2644 25.9277 31.0936 17.4983 31.0936C17.4976 31.0936 17.4985 31.0936 17.4983 31.0936H17.4918C14.9319 31.0927 12.4166 30.4535 10.1826 29.2406L2.07379 31.3569Z" fill="white"/>
<path d="M2.72634 15.8682C2.72542 18.4575 3.40511 20.9856 4.6975 23.2142L2.60254 30.8285L10.4302 28.7853C12.5869 29.9552 15.0151 30.5728 17.4863 30.5736H17.4927C25.6308 30.5736 32.2548 23.9816 32.2582 15.8797C32.2598 11.9533 30.7253 8.26186 27.9372 5.48414C25.1497 2.70681 21.4425 1.17645 17.492 1.17461C9.35351 1.17461 2.72986 7.76583 2.72634 15.8682ZM17.4927 30.5736C17.4924 30.5736 17.4925 30.5736 17.4927 30.5736V30.5736Z" fill="url(#paint0_linear_1_53)"/>
<path d="M2.20227 15.8637C2.20135 18.5462 2.90545 21.1651 4.24388 23.4731L2.07379 31.36L10.1823 29.2436C12.4165 30.4564 14.9316 31.0955 17.4915 31.0966H17.498C25.9275 31.0966 32.7901 24.2675 32.7935 15.8756C32.7949 11.8081 31.2052 7.98389 28.3176 5.10698C25.4295 2.23006 21.5895 0.644799 17.498 0.643044C9.06675 0.643044 2.20579 7.47122 2.20227 15.8637ZM7.0307 23.0755L6.72802 22.597C5.45525 20.5827 4.78349 18.2546 4.78441 15.8644C4.78719 8.88915 10.4901 3.21387 17.5025 3.21387C20.8983 3.21519 24.0899 4.53304 26.4905 6.92407C28.891 9.31526 30.2119 12.494 30.2109 15.8743C30.2078 22.85 24.5049 28.5257 17.4976 28.5257H17.4926C15.211 28.5244 12.9735 27.9147 11.0221 26.762L10.5577 26.4879L5.74576 27.7439L7.0307 23.0755ZM17.498 31.0966C17.4976 31.0966 17.4979 31.0966 17.498 31.0966V31.0966Z" fill="url(#paint1_linear_1_53)"/>
<path fill-rule="evenodd" clip-rule="evenodd" d="M13.673 9.49975C13.3867 8.86617 13.0854 8.85349 12.8131 8.84234C12.5902 8.83291 12.3353 8.83352 12.0806 8.83352C11.8257 8.83352 11.4117 8.92874 11.0616 9.30945C10.7111 9.69017 9.72379 10.6105 9.72379 12.4822C9.72379 14.3542 11.0935 16.1628 11.2843 16.4169C11.4754 16.6705 13.9284 20.6345 17.8126 22.1594C21.0412 23.4266 21.6981 23.1745 22.3989 23.111C23.0996 23.0477 24.66 22.1911 24.9785 21.3027C25.2969 20.4143 25.2969 19.653 25.2014 19.4939C25.106 19.3354 24.851 19.2402 24.4689 19.0501C24.0866 18.8598 22.2077 17.9393 21.8574 17.8123C21.507 17.6855 21.2521 17.6221 20.9973 18.0031C20.7424 18.3835 20.0105 19.2402 19.7874 19.4939C19.5646 19.7482 19.3416 19.78 18.9594 19.5896C18.5771 19.3988 17.3462 18.9974 15.886 17.7015C14.7497 16.6931 13.9828 15.4478 13.7598 15.0669C13.5368 14.6865 13.736 14.4804 13.9276 14.2907C14.0992 14.1202 14.3099 13.8465 14.501 13.6244C14.6917 13.4023 14.7554 13.2438 14.8827 12.99C15.0102 12.7361 14.9465 12.5139 14.851 12.3236C14.7554 12.1333 14.0128 10.2521 13.673 9.49975Z" fill="white"/>
</g>
</g>
<defs>
<linearGradient id="paint0_linear_1_53" x1="17.4306" y1="30.8255" x2="17.4306" y2="1.17149" gradientUnits="userSpaceOnUse">
<stop stop-color="#20B038"/>
<stop offset="1" stop-color="#60D66A"/>
</linearGradient>
<linearGradient id="paint1_linear_1_53" x1="17.4339" y1="31.3609" x2="17.4339" y2="0.643966" gradientUnits="userSpaceOnUse">
<stop stop-color="#F9F9F9"/>
<stop offset="1" stop-color="white"/>
</linearGradient>
<clipPath id="clip0_1_53">
<rect width="32" height="30.72" fill="white" transform="translate(0.800049 0.639999)"/>
</clipPath>
<clipPath id="clip1_1_53">
<rect width="32" height="30.72" fill="white" transform="translate(0.800049 0.639999)"/>
</clipPath>
</defs>
</svg>
